<mxfile host="app.diagrams.net" agent="Mozilla/5.0 (Macintosh; Intel Mac OS X 10_15_7) AppleWebKit/537.36 (KHTML, like Gecko) Chrome/133.0.0.0 Safari/537.36" version="26.0.14">
  <diagram name="第 1 页" id="oglCzEgyUQVp-rbr_owY">
    <mxGraphModel dx="2069" dy="785" grid="1" gridSize="10" guides="1" tooltips="1" connect="1" arrows="1" fold="1" page="1" pageScale="1" pageWidth="827" pageHeight="1169" math="0" shadow="0">
      <root>
        <mxCell id="0" />
        <mxCell id="1" parent="0" />
        <mxCell id="Tt0FMffgAjtofy6_wQyA-16" style="edgeStyle=orthogonalEdgeStyle;rounded=0;orthogonalLoop=1;jettySize=auto;html=1;entryX=0;entryY=0.5;entryDx=0;entryDy=0;strokeWidth=2;" edge="1" parent="1" source="Tt0FMffgAjtofy6_wQyA-1" target="Tt0FMffgAjtofy6_wQyA-4">
          <mxGeometry relative="1" as="geometry" />
        </mxCell>
        <mxCell id="Tt0FMffgAjtofy6_wQyA-17" style="edgeStyle=orthogonalEdgeStyle;rounded=0;orthogonalLoop=1;jettySize=auto;html=1;entryX=0;entryY=0.5;entryDx=0;entryDy=0;strokeWidth=2;" edge="1" parent="1" source="Tt0FMffgAjtofy6_wQyA-1" target="Tt0FMffgAjtofy6_wQyA-7">
          <mxGeometry relative="1" as="geometry" />
        </mxCell>
        <mxCell id="Tt0FMffgAjtofy6_wQyA-31" style="edgeStyle=orthogonalEdgeStyle;rounded=0;orthogonalLoop=1;jettySize=auto;html=1;entryX=0.5;entryY=0;entryDx=0;entryDy=0;strokeWidth=2;" edge="1" parent="1" source="Tt0FMffgAjtofy6_wQyA-1" target="Tt0FMffgAjtofy6_wQyA-19">
          <mxGeometry relative="1" as="geometry" />
        </mxCell>
        <mxCell id="Tt0FMffgAjtofy6_wQyA-1" value="&lt;font style=&quot;font-size: 18px;&quot;&gt;&lt;b&gt;1. 梳理活动涉及的业务功能&lt;/b&gt;&lt;/font&gt;" style="rounded=1;whiteSpace=wrap;html=1;strokeWidth=2;" vertex="1" parent="1">
          <mxGeometry y="230" width="280" height="90" as="geometry" />
        </mxCell>
        <mxCell id="Tt0FMffgAjtofy6_wQyA-4" value="&lt;font style=&quot;font-size: 18px;&quot;&gt;端到端接口&lt;/font&gt;" style="rounded=0;whiteSpace=wrap;html=1;strokeWidth=2;" vertex="1" parent="1">
          <mxGeometry x="460" y="170" width="120" height="60" as="geometry" />
        </mxCell>
        <mxCell id="Tt0FMffgAjtofy6_wQyA-21" style="edgeStyle=orthogonalEdgeStyle;rounded=0;orthogonalLoop=1;jettySize=auto;html=1;entryX=0;entryY=0.5;entryDx=0;entryDy=0;strokeWidth=2;" edge="1" parent="1" source="Tt0FMffgAjtofy6_wQyA-7" target="Tt0FMffgAjtofy6_wQyA-10">
          <mxGeometry relative="1" as="geometry" />
        </mxCell>
        <mxCell id="Tt0FMffgAjtofy6_wQyA-22" style="edgeStyle=orthogonalEdgeStyle;rounded=0;orthogonalLoop=1;jettySize=auto;html=1;entryX=0;entryY=0.5;entryDx=0;entryDy=0;strokeWidth=2;" edge="1" parent="1" source="Tt0FMffgAjtofy6_wQyA-7" target="Tt0FMffgAjtofy6_wQyA-8">
          <mxGeometry relative="1" as="geometry">
            <Array as="points">
              <mxPoint x="650" y="360" />
              <mxPoint x="650" y="255" />
              <mxPoint x="733" y="255" />
            </Array>
          </mxGeometry>
        </mxCell>
        <mxCell id="Tt0FMffgAjtofy6_wQyA-56" style="edgeStyle=orthogonalEdgeStyle;rounded=0;orthogonalLoop=1;jettySize=auto;html=1;entryX=0;entryY=0.5;entryDx=0;entryDy=0;strokeWidth=2;" edge="1" parent="1" source="Tt0FMffgAjtofy6_wQyA-7" target="Tt0FMffgAjtofy6_wQyA-9">
          <mxGeometry relative="1" as="geometry">
            <Array as="points">
              <mxPoint x="650" y="360" />
              <mxPoint x="650" y="465" />
            </Array>
          </mxGeometry>
        </mxCell>
        <mxCell id="Tt0FMffgAjtofy6_wQyA-7" value="&lt;font style=&quot;font-size: 18px;&quot;&gt;接口trace链路&lt;/font&gt;" style="rounded=0;whiteSpace=wrap;html=1;strokeWidth=2;" vertex="1" parent="1">
          <mxGeometry x="460" y="330" width="130" height="60" as="geometry" />
        </mxCell>
        <mxCell id="Tt0FMffgAjtofy6_wQyA-8" value="&lt;font style=&quot;font-size: 14px;&quot;&gt;涉及的服务与接口&lt;/font&gt;" style="ellipse;whiteSpace=wrap;html=1;strokeWidth=2;" vertex="1" parent="1">
          <mxGeometry x="732.5" y="200" width="153" height="90" as="geometry" />
        </mxCell>
        <mxCell id="Tt0FMffgAjtofy6_wQyA-9" value="依赖的缓存与存储" style="ellipse;whiteSpace=wrap;html=1;strokeWidth=2;" vertex="1" parent="1">
          <mxGeometry x="737.5" y="430" width="158" height="70" as="geometry" />
        </mxCell>
        <mxCell id="Tt0FMffgAjtofy6_wQyA-10" value="&lt;font style=&quot;font-size: 14px;&quot;&gt;投递的异步消息队列&lt;/font&gt;" style="ellipse;whiteSpace=wrap;html=1;strokeWidth=2;" vertex="1" parent="1">
          <mxGeometry x="737.5" y="320" width="150" height="80" as="geometry" />
        </mxCell>
        <mxCell id="Tt0FMffgAjtofy6_wQyA-29" style="edgeStyle=orthogonalEdgeStyle;rounded=0;orthogonalLoop=1;jettySize=auto;html=1;entryX=0;entryY=0.5;entryDx=0;entryDy=0;strokeWidth=2;" edge="1" parent="1" source="Tt0FMffgAjtofy6_wQyA-19" target="Tt0FMffgAjtofy6_wQyA-27">
          <mxGeometry relative="1" as="geometry" />
        </mxCell>
        <mxCell id="Tt0FMffgAjtofy6_wQyA-30" style="edgeStyle=orthogonalEdgeStyle;rounded=0;orthogonalLoop=1;jettySize=auto;html=1;entryX=0;entryY=0.5;entryDx=0;entryDy=0;strokeWidth=2;" edge="1" parent="1" source="Tt0FMffgAjtofy6_wQyA-19" target="Tt0FMffgAjtofy6_wQyA-28">
          <mxGeometry relative="1" as="geometry" />
        </mxCell>
        <mxCell id="Tt0FMffgAjtofy6_wQyA-44" style="edgeStyle=orthogonalEdgeStyle;rounded=0;orthogonalLoop=1;jettySize=auto;html=1;entryX=0.5;entryY=0;entryDx=0;entryDy=0;strokeWidth=2;" edge="1" parent="1" source="Tt0FMffgAjtofy6_wQyA-19" target="Tt0FMffgAjtofy6_wQyA-25">
          <mxGeometry relative="1" as="geometry" />
        </mxCell>
        <mxCell id="Tt0FMffgAjtofy6_wQyA-19" value="&lt;span style=&quot;font-size: 18px;&quot;&gt;&lt;b&gt;2. 确定流量与容量的放大模型&lt;/b&gt;&lt;/span&gt;" style="rounded=1;whiteSpace=wrap;html=1;strokeWidth=2;" vertex="1" parent="1">
          <mxGeometry x="-15" y="600" width="310" height="90" as="geometry" />
        </mxCell>
        <mxCell id="Tt0FMffgAjtofy6_wQyA-35" style="edgeStyle=orthogonalEdgeStyle;rounded=0;orthogonalLoop=1;jettySize=auto;html=1;entryX=0;entryY=0.5;entryDx=0;entryDy=0;strokeWidth=2;" edge="1" parent="1" source="Tt0FMffgAjtofy6_wQyA-25" target="Tt0FMffgAjtofy6_wQyA-32">
          <mxGeometry relative="1" as="geometry" />
        </mxCell>
        <mxCell id="Tt0FMffgAjtofy6_wQyA-36" style="edgeStyle=orthogonalEdgeStyle;rounded=0;orthogonalLoop=1;jettySize=auto;html=1;entryX=0;entryY=0.5;entryDx=0;entryDy=0;strokeWidth=2;" edge="1" parent="1" source="Tt0FMffgAjtofy6_wQyA-25" target="Tt0FMffgAjtofy6_wQyA-33">
          <mxGeometry relative="1" as="geometry" />
        </mxCell>
        <mxCell id="Tt0FMffgAjtofy6_wQyA-37" style="edgeStyle=orthogonalEdgeStyle;rounded=0;orthogonalLoop=1;jettySize=auto;html=1;entryX=0;entryY=0.5;entryDx=0;entryDy=0;strokeWidth=2;" edge="1" parent="1" source="Tt0FMffgAjtofy6_wQyA-25" target="Tt0FMffgAjtofy6_wQyA-34">
          <mxGeometry relative="1" as="geometry" />
        </mxCell>
        <mxCell id="Tt0FMffgAjtofy6_wQyA-57" style="edgeStyle=orthogonalEdgeStyle;rounded=0;orthogonalLoop=1;jettySize=auto;html=1;entryX=0.5;entryY=0;entryDx=0;entryDy=0;strokeWidth=2;" edge="1" parent="1" source="Tt0FMffgAjtofy6_wQyA-25" target="Tt0FMffgAjtofy6_wQyA-50">
          <mxGeometry relative="1" as="geometry" />
        </mxCell>
        <mxCell id="Tt0FMffgAjtofy6_wQyA-25" value="&lt;span style=&quot;font-size: 18px;&quot;&gt;&lt;b&gt;3. 预估流量峰值与系统容量&lt;/b&gt;&lt;/span&gt;" style="rounded=1;whiteSpace=wrap;html=1;strokeWidth=2;" vertex="1" parent="1">
          <mxGeometry x="-15" y="935" width="310" height="90" as="geometry" />
        </mxCell>
        <mxCell id="Tt0FMffgAjtofy6_wQyA-27" value="&lt;font style=&quot;font-size: 18px;&quot;&gt;采集历史同类型活动监控指标&lt;/font&gt;" style="rounded=0;whiteSpace=wrap;html=1;strokeWidth=2;" vertex="1" parent="1">
          <mxGeometry x="414" y="524.5" width="246" height="60" as="geometry" />
        </mxCell>
        <mxCell id="Tt0FMffgAjtofy6_wQyA-28" value="&lt;font style=&quot;font-size: 18px;&quot;&gt;总结流量与容量的放大规律&lt;/font&gt;" style="rounded=0;whiteSpace=wrap;html=1;strokeWidth=2;" vertex="1" parent="1">
          <mxGeometry x="414" y="710" width="236" height="60" as="geometry" />
        </mxCell>
        <mxCell id="Tt0FMffgAjtofy6_wQyA-41" style="edgeStyle=orthogonalEdgeStyle;rounded=0;orthogonalLoop=1;jettySize=auto;html=1;entryX=0;entryY=0.5;entryDx=0;entryDy=0;strokeWidth=2;" edge="1" parent="1" source="Tt0FMffgAjtofy6_wQyA-32" target="Tt0FMffgAjtofy6_wQyA-38">
          <mxGeometry relative="1" as="geometry" />
        </mxCell>
        <mxCell id="Tt0FMffgAjtofy6_wQyA-43" style="edgeStyle=orthogonalEdgeStyle;rounded=0;orthogonalLoop=1;jettySize=auto;html=1;exitX=1;exitY=0.5;exitDx=0;exitDy=0;entryX=0;entryY=0.5;entryDx=0;entryDy=0;strokeWidth=2;" edge="1" parent="1" source="Tt0FMffgAjtofy6_wQyA-32" target="Tt0FMffgAjtofy6_wQyA-40">
          <mxGeometry relative="1" as="geometry" />
        </mxCell>
        <mxCell id="Tt0FMffgAjtofy6_wQyA-48" style="edgeStyle=orthogonalEdgeStyle;rounded=0;orthogonalLoop=1;jettySize=auto;html=1;entryX=0;entryY=0.5;entryDx=0;entryDy=0;strokeWidth=2;" edge="1" parent="1" source="Tt0FMffgAjtofy6_wQyA-32" target="Tt0FMffgAjtofy6_wQyA-47">
          <mxGeometry relative="1" as="geometry" />
        </mxCell>
        <mxCell id="Tt0FMffgAjtofy6_wQyA-49" style="edgeStyle=orthogonalEdgeStyle;rounded=0;orthogonalLoop=1;jettySize=auto;html=1;entryX=0;entryY=0.5;entryDx=0;entryDy=0;strokeWidth=2;" edge="1" parent="1" source="Tt0FMffgAjtofy6_wQyA-32" target="Tt0FMffgAjtofy6_wQyA-39">
          <mxGeometry relative="1" as="geometry" />
        </mxCell>
        <mxCell id="Tt0FMffgAjtofy6_wQyA-32" value="&lt;font style=&quot;font-size: 18px;&quot;&gt;系统容量扩容建议&lt;/font&gt;" style="rounded=0;whiteSpace=wrap;html=1;strokeWidth=2;" vertex="1" parent="1">
          <mxGeometry x="414" y="840" width="200" height="60" as="geometry" />
        </mxCell>
        <mxCell id="Tt0FMffgAjtofy6_wQyA-33" value="&lt;font style=&quot;font-size: 18px;&quot;&gt;接口限流配额建议&lt;/font&gt;" style="rounded=0;whiteSpace=wrap;html=1;strokeWidth=2;" vertex="1" parent="1">
          <mxGeometry x="414" y="950" width="200" height="60" as="geometry" />
        </mxCell>
        <mxCell id="Tt0FMffgAjtofy6_wQyA-34" value="&lt;font style=&quot;font-size: 18px;&quot;&gt;压测接口目标值建议&lt;/font&gt;" style="rounded=0;whiteSpace=wrap;html=1;strokeWidth=2;" vertex="1" parent="1">
          <mxGeometry x="414" y="1060" width="200" height="60" as="geometry" />
        </mxCell>
        <mxCell id="Tt0FMffgAjtofy6_wQyA-38" value="&lt;font style=&quot;font-size: 14px;&quot;&gt;SLB/API-GW(通用网关)&lt;/font&gt;" style="ellipse;whiteSpace=wrap;html=1;strokeWidth=2;" vertex="1" parent="1">
          <mxGeometry x="737.5" y="640" width="162.5" height="90" as="geometry" />
        </mxCell>
        <mxCell id="Tt0FMffgAjtofy6_wQyA-39" value="&lt;font style=&quot;font-size: 14px;&quot;&gt;Pass内部服务&lt;/font&gt;" style="ellipse;whiteSpace=wrap;html=1;strokeWidth=2;" vertex="1" parent="1">
          <mxGeometry x="737.5" y="770" width="153" height="90" as="geometry" />
        </mxCell>
        <mxCell id="Tt0FMffgAjtofy6_wQyA-40" value="&lt;font style=&quot;font-size: 14px;&quot;&gt;缓存/存储&lt;/font&gt;" style="ellipse;whiteSpace=wrap;html=1;strokeWidth=2;" vertex="1" parent="1">
          <mxGeometry x="737.5" y="1030" width="153" height="90" as="geometry" />
        </mxCell>
        <mxCell id="Tt0FMffgAjtofy6_wQyA-47" value="&lt;font style=&quot;font-size: 14px;&quot;&gt;异步队列消费者&lt;/font&gt;" style="ellipse;whiteSpace=wrap;html=1;strokeWidth=2;" vertex="1" parent="1">
          <mxGeometry x="737.5" y="900" width="153" height="90" as="geometry" />
        </mxCell>
        <mxCell id="Tt0FMffgAjtofy6_wQyA-53" style="edgeStyle=orthogonalEdgeStyle;rounded=0;orthogonalLoop=1;jettySize=auto;html=1;entryX=0;entryY=0.5;entryDx=0;entryDy=0;strokeWidth=2;" edge="1" parent="1" source="Tt0FMffgAjtofy6_wQyA-50" target="Tt0FMffgAjtofy6_wQyA-51">
          <mxGeometry relative="1" as="geometry" />
        </mxCell>
        <mxCell id="Tt0FMffgAjtofy6_wQyA-55" style="edgeStyle=orthogonalEdgeStyle;rounded=0;orthogonalLoop=1;jettySize=auto;html=1;exitX=1;exitY=0.5;exitDx=0;exitDy=0;entryX=0;entryY=0.5;entryDx=0;entryDy=0;strokeWidth=2;" edge="1" parent="1" source="Tt0FMffgAjtofy6_wQyA-50" target="Tt0FMffgAjtofy6_wQyA-52">
          <mxGeometry relative="1" as="geometry" />
        </mxCell>
        <mxCell id="Tt0FMffgAjtofy6_wQyA-50" value="&lt;span style=&quot;font-size: 18px;&quot;&gt;&lt;b&gt;4. 压测&lt;/b&gt;&lt;/span&gt;" style="rounded=1;whiteSpace=wrap;html=1;strokeWidth=2;" vertex="1" parent="1">
          <mxGeometry x="-15" y="1230" width="310" height="90" as="geometry" />
        </mxCell>
        <mxCell id="Tt0FMffgAjtofy6_wQyA-51" value="&lt;font style=&quot;font-size: 18px;&quot;&gt;模拟预估流量峰值验证系统容量是否充足并调整&lt;/font&gt;" style="rounded=0;whiteSpace=wrap;html=1;strokeWidth=2;" vertex="1" parent="1">
          <mxGeometry x="371" y="1160" width="389" height="60" as="geometry" />
        </mxCell>
        <mxCell id="Tt0FMffgAjtofy6_wQyA-52" value="&lt;font style=&quot;font-size: 18px;&quot;&gt;发现系统瓶颈与缺陷并优化&lt;/font&gt;" style="rounded=0;whiteSpace=wrap;html=1;strokeWidth=2;" vertex="1" parent="1">
          <mxGeometry x="371" y="1330" width="389" height="60" as="geometry" />
        </mxCell>
      </root>
    </mxGraphModel>
  </diagram>
</mxfile>
